<?xml version="1.0"?>
<svg xmlns="http://www.w3.org/2000/svg" xmlns:xlink="http://www.w3.org/1999/xlink" xmlns:svgjs="http://svgjs.com/svgjs" version="1.1" width="512" height="512" x="0" y="0" viewBox="0 0 512.002 512" style="enable-background:new 0 0 512 512" xml:space="preserve" class=""><g><path xmlns="http://www.w3.org/2000/svg" d="m326.1875 290.246094h-180.058594c-5.589844 0-10.121094-4.53125-10.121094-10.121094s4.53125-10.121094 10.121094-10.121094h169.3125c-3.828125-10.09375-5.921875-21.039062-5.921875-32.472656 0-10.121094 1.644531-19.855469 4.671875-28.957031v-159.78125c0-5.585938 4.527344-10.117188 10.117188-10.117188 5.585937 0 10.117187 4.53125 10.117187 10.117188v125.929687c.636719-.675781 1.28125-1.34375 1.941407-2 5.039062-5.042968 10.667968-9.5 16.769531-13.261718v-110.664063c0-5.589844 4.527343-10.121094 10.117187-10.121094s10.121094 4.53125 10.121094 10.121094v101.375c5.992188-1.90625 12.253906-3.210937 18.707031-3.847656v-97.527344c0-5.589844 4.53125-10.121094 10.121094-10.121094 5.585937 0 10.117187 4.53125 10.117187 10.121094v97.75c7.421876.902344 14.570313 2.6875 21.332032 5.25v-116.769531c0-4.058594-1.664063-7.75-4.351563-10.4375-2.683593-2.683594-6.378906-4.351563-10.433593-4.351563h-30.152344c-5.589844 0-10.121094-4.527343-10.121094-10.117187s4.53125-10.121094 10.121094-10.121094h30.152344c9.640624 0 18.398437 3.9375 24.742187 10.28125s10.28125 15.101562 10.28125 24.746094v127.515625c4.324219 3.042969 8.371094 6.449219 12.097656 10.175781 16.585938 16.589844 26.847657 39.5 26.847657 64.8125 0 21.664062-7.519532 41.570312-20.085938 57.261719l36.289062 36.289062c3.949219 3.953125 3.949219 10.359375 0 14.308594-3.949218 3.953125-10.355468 3.953125-14.304687 0l-36.292969-36.292969c-15.691406 12.570313-35.597656 20.089844-57.261718 20.089844-25.3125 0-48.222657-10.261719-64.8125-26.847656-3.726563-3.726563-7.136719-7.773438-10.179688-12.09375zm-261.007812-20.238282h-30.152344c-4.058594 0-7.753906-1.667968-10.4375-4.351562-2.683594-2.6875-4.351563-6.382812-4.351563-10.4375v-220.191406c0-4.058594 1.667969-7.75 4.351563-10.4375 2.683594-2.683594 6.378906-4.351563 10.4375-4.351563h272.734375c5.589843 0 10.117187-4.527343 10.117187-10.117187s-4.527344-10.121094-10.117187-10.121094h-272.734375c-9.644532 0-18.402344 3.9375-24.746094 10.28125s-10.28125 15.105469-10.28125 24.746094v220.191406c0 9.644531 3.9375 18.402344 10.28125 24.746094s15.101562 10.28125 24.746094 10.28125h30.152344c5.585937 0 10.117187-4.53125 10.117187-10.121094s-4.53125-10.117188-10.117187-10.117188zm40.472656 0c5.589844 0 10.121094 4.527344 10.121094 10.117188s-4.53125 10.121094-10.121094 10.121094c-5.585938 0-10.117188-4.53125-10.117188-10.121094s4.53125-10.117188 10.117188-10.117188zm242.582031-270.00390575c-5.585937 0-10.117187 4.52734375-10.117187 10.11718775s4.53125 10.121094 10.117187 10.121094c5.589844 0 10.121094-4.53125 10.121094-10.121094s-4.53125-10.11718775-10.121094-10.11718775zm-306.664063 48.78906275c0-5.585938 4.527344-10.117188 10.117188-10.117188s10.121094 4.53125 10.121094 10.117188v192.660156c0 5.585937-4.53125 10.117187-10.121094 10.117187s-10.117188-4.527343-10.117188-10.117187zm233.675782 0v147.222656c0 5.585937 4.53125 10.117187 10.117187 10.117187 5.589844 0 10.121094-4.527343 10.121094-10.117187v-147.222656c0-5.585938-4.53125-10.117188-10.121094-10.117188-5.585937 0-10.117187 4.53125-10.117187 10.117188zm-38.949219 0v166.695312c0 5.585938 4.53125 10.117188 10.121094 10.117188 5.585937 0 10.117187-4.527344 10.117187-10.117188v-166.695312c0-5.585938-4.527344-10.117188-10.117187-10.117188-5.589844 0-10.121094 4.53125-10.121094 10.117188zm-38.945313 0v166.695312c0 5.585938 4.53125 10.117188 10.121094 10.117188 5.585938 0 10.117188-4.527344 10.117188-10.117188v-166.695312c0-5.585938-4.527344-10.117188-10.117188-10.117188s-10.121094 4.53125-10.121094 10.117188zm-38.945312 0v124.503906c0 5.585937 4.53125 10.117187 10.121094 10.117187 5.585937 0 10.117187-4.527343 10.117187-10.117187v-124.503906c0-5.585938-4.53125-10.117188-10.117187-10.117188-5.589844 0-10.121094 4.53125-10.121094 10.117188zm-38.945312 0v147.222656c0 5.585937 4.53125 10.117187 10.121093 10.117187 5.585938 0 10.117188-4.527343 10.117188-10.117187v-147.222656c0-5.585938-4.53125-10.117188-10.117188-10.117188-5.589843 0-10.121093 4.53125-10.121093 10.117188zm-38.945313 0c0-5.585938 4.53125-10.117188 10.117187-10.117188 5.589844 0 10.121094 4.53125 10.121094 10.117188v147.222656c0 5.585937-4.53125 10.117187-10.121094 10.117187-5.585937 0-10.117187-4.527343-10.117187-10.117187zm392.078125 188.738281c0-19.722656-7.992188-37.578125-20.917969-50.5-12.921875-12.925781-30.777343-20.917969-50.5-20.917969-19.046875 0-37.097656 7.511719-50.503906 20.917969-12.921875 12.921875-20.917969 30.777344-20.917969 50.5s7.996094 37.578125 20.917969 50.5c12.925781 12.925781 30.78125 20.917969 50.503906 20.917969 39.445313 0 71.417969-31.972657 71.417969-71.417969zm0 0" fill-rule="evenodd" fill="#00c853" data-original="#000000" style="" class=""/></g></svg>
