<?xml version="1.0"?>
<svg xmlns="http://www.w3.org/2000/svg" xmlns:xlink="http://www.w3.org/1999/xlink" xmlns:svgjs="http://svgjs.com/svgjs" version="1.1" width="512" height="512" x="0" y="0" viewBox="0 0 512.00096 512" style="enable-background:new 0 0 512 512" xml:space="preserve" class=""><g><path xmlns="http://www.w3.org/2000/svg" d="m358.660156 223.273438c3.90625-3.902344 10.238282-3.902344 14.140625 0 3.90625 3.90625 3.90625 10.238281 0 14.140624l-107.4375 107.4375c-3.902343 3.90625-10.234375 3.90625-14.140625 0-3.902344-3.902343-3.902344-10.234374 0-14.140624zm-151.800781-29.175782c5.523437 0 10 4.476563 10 10 0 5.523438-4.476563 10-10 10s-10-4.476562-10-10v40c0-5.523437 4.480469-10 10-10 5.523437 0 10 4.476563 10 10v175h224.074219v-227.660156c-12.234375-2.09375-23.179688-7.96875-31.589844-16.378906-2.679688-2.679688-5.101562-5.617188-7.226562-8.773438-2.125 3.15625-4.546876 6.09375-7.226563 8.773438-10.644531 10.644531-25.347656 17.226562-41.585937 17.226562-16.242188 0-30.945313-6.582031-41.589844-17.226562-2.679688-2.679688-5.101563-5.617188-7.226563-8.773438-2.125 3.15625-4.546875 6.09375-7.226562 8.773438-10.644531 10.644531-25.347657 17.226562-41.589844 17.226562-16.238281 0-30.941406-6.582031-41.585937-17.226562-2.6875-2.683594-5.113282-5.628906-7.242188-8.789063-2.121094 3.160157-4.539062 6.113281-7.210938 8.789063-10.644531 10.644531-25.347656 17.226562-41.589843 17.226562-16.238281 0-30.945313-6.582031-41.585938-17.226562-2.679687-2.679688-5.105469-5.617188-7.226562-8.773438-2.125 3.15625-4.546875 6.09375-7.230469 8.773438-8.40625 8.410156-19.351562 14.285156-31.585938 16.382812v227.660156h126.441407v-215.027343.023437c.003906-5.523437 4.480469-10 10.003906-10zm244.074219-21.8125c-10.71875 0-20.425782-4.34375-27.445313-11.367187-7.027343-7.023438-11.367187-16.726563-11.367187-27.445313 0-1.082031-.175782-2.125-.492188-3.097656l-6.472656-26.09375-20.910156-84.28125h48.066406l58.488281 117.886719.289063.542969c.621094 1.320312.910156 2.722656.910156 4.167968 0 3.839844-2.027344 8.039063-5.316406 12.042969-3.875 4.714844-9.316406 8.960937-15.40625 12.136719-6.539063 3.414062-13.71875 5.507812-20.34375 5.507812zm10 19.039063c6.671875-1.246094 13.359375-3.652344 19.566406-6.890625 8.402344-4.382813 16.019531-10.375 21.574219-17.136719 6.144531-7.476563 9.925781-16.003906 9.925781-24.699219 0-4.875-1.15625-9.1875-3.308594-13.542968l-60.941406-122.832032c-1.492188-3.648437-5.078125-6.222656-9.261719-6.222656h-365.625c-4.183593 0-7.769531 2.574219-9.261719 6.222656l-60.984374 122.914063c-1.785157 3.707031-2.617188 7.601562-2.617188 11.570312 0 8.964844 4.28125 18.34375 11.144531 26.566407 6.285157 7.53125 14.925781 14.308593 24.371094 18.863281 4.796875 2.3125 9.828125 4.074219 14.902344 5.105469v237.855468c0 5.523438 4.480469 10 10.003906 10h390.511719c5.523437 0 10-4.476562 10-10zm-295.460938 132.195312c0 5.523438-4.476562 10-9.996094 10-5.523437 0-10.003906-4.476562-10.003906-10v-39.539062c0-5.523438 4.480469-10 10.003906-10 5.519532 0 9.996094 4.476562 9.996094 10zm142.660156-104.21875-60.882812 60.882813c-3.90625 3.90625-3.90625 10.238281 0 14.140625 3.902344 3.90625 10.234375 3.90625 14.136719 0l60.886719-60.882813c3.90625-3.90625 3.90625-10.238281 0-14.140625-3.90625-3.90625-10.234376-3.90625-14.140626 0zm-229.09375-199.300781h48.0625l-20.90625 84.28125-6.476562 26.089844c-.316406.976562-.488281 2.019531-.488281 3.101562 0 10.71875-4.34375 20.421875-11.367188 27.445313-7.019531 7.023437-16.726562 11.367187-27.445312 11.367187-5.304688 0-10.914063-1.554687-16.234375-4.121094-6.882813-3.320312-13.171875-8.242187-17.726563-13.703124-3.980469-4.765626-6.457031-9.671876-6.457031-13.753907 0-1.085937.183594-2.070312.585938-2.898437zm40.207032 114.535156 7.507812-30.253906 20.90625-84.28125h56.242188l-1.394532 22.476562-3.835937 61.804688-1.726563 27.898438c-.054687.421874-.085937.851562-.085937 1.292968 0 10.71875-4.34375 20.421875-11.367187 27.445313-7.023438 7.023437-16.726563 11.367187-27.445313 11.367187s-20.421875-4.34375-27.445313-11.367187c-6.792968-6.789063-11.078124-16.085938-11.355468-26.382813zm99.421875-30.253906 5.226562-84.28125h63.5625l5.226563 84.28125 1.808594 29.152344v.039062c0 10.71875-4.347657 20.421875-11.367188 27.445313-7.023438 7.023437-16.726562 11.367187-27.449219 11.367187-10.71875 0-20.421875-4.34375-27.445312-11.367187-6.863281-6.859375-11.167969-16.28125-11.363281-26.707031l-.007813-.773438 1.785156-28.734375zm94.007812 0-5.226562-84.28125h56.238281l20.910156 84.28125 7.503906 30.253906c-.273437 10.296875-4.5625 19.59375-11.351562 26.382813-7.023438 7.023437-16.726562 11.367187-27.445312 11.367187-10.722657 0-20.425782-4.34375-27.449219-11.367187-7.023438-7.023438-11.367188-16.726563-11.367188-27.445313 0-.4375-.027343-.871094-.082031-1.292968zm0 0" fill-rule="evenodd" fill="#00c853" data-original="#000000" style="" class=""/></g></svg>
