<?xml version="1.0"?>
<svg xmlns="http://www.w3.org/2000/svg" xmlns:xlink="http://www.w3.org/1999/xlink" xmlns:svgjs="http://svgjs.com/svgjs" version="1.1" width="512" height="512" x="0" y="0" viewBox="0 0 511.99979 511" style="enable-background:new 0 0 512 512" xml:space="preserve" class=""><g><path xmlns="http://www.w3.org/2000/svg" d="m215.726562.5c59.570313 0 113.5 24.144531 152.539063 63.1875 39.039063 39.039062 63.1875 92.96875 63.1875 152.539062 0 41.519532-11.734375 80.300782-32.066406 113.210938l97.410156 97.410156c16.761719 16.757813 18.292969 36.773438 11.21875 53.359375-2.695313 6.320313-6.632813 12.066407-11.4375 16.871094-4.804687 4.800781-10.550781 8.738281-16.871094 11.433594-16.582031 7.074219-36.601562 5.542969-53.359375-11.214844l-97.410156-97.410156c-32.910156 20.328125-71.6875 32.0625-113.210938 32.0625-59.570312 0-113.5-24.144531-152.539062-63.183594s-63.1875-92.96875-63.1875-152.539063c0-59.570312 24.148438-113.5 63.1875-152.539062s92.96875-63.1875 152.539062-63.1875zm-39.972656 308.5h-49.5625l-16.476562-119.113281h212.023437l-16.480469 119.113281h-49.996093v.007812c-5.304688.246094-9.527344 4.625-9.527344 9.988282 0 5.363281 4.222656 9.738281 9.527344 9.984375h.015625c.148437.007812.300781.011719.453125.011719.152343 0 .304687-.003907.457031-.011719l57.761719-.007813c4.90625.007813 9.1875-3.609375 9.878906-8.605468l18.050781-130.480469h17.773438c5.523437 0 10-4.476563 10-10 0-5.519531-4.476563-10-10-10h-40.363282l-51.542968-77.695313c-3.042969-4.59375-9.234375-5.855468-13.828125-2.8125-4.59375 3.042969-5.851563 9.230469-2.8125 13.828125l44.234375 66.679688h-159.226563l44.234375-66.679688c3.039063-4.597656 1.78125-10.785156-2.8125-13.828125-4.597656-3.042968-10.785156-1.78125-13.828125 2.8125l-51.542969 77.695313h-40.363281c-5.523437 0-10 4.476562-10 10 0 5.523437 4.476563 10 10 10h17.773438l17.957031 129.808593c.355469 5.195313 4.683594 9.300782 9.972656 9.300782l58.117188-.003906h.132812c5.519532 0 9.996094-4.476563 9.996094-9.996094 0-5.523438-4.476562-9.996094-9.996094-9.996094zm39.988282 0c-5.523438 0-10 4.472656-10 9.996094 0 5.519531 4.476562 9.996094 10 9.996094 5.519531 0 9.996093-4.476563 9.996093-9.996094 0-5.523438-4.476562-9.996094-9.996093-9.996094zm-57.394532-92.230469v65.347657c0 5.519531 4.476563 10 9.996094 10 5.523438 0 10-4.480469 10-10v-65.347657c0-5.523437-4.476562-9.996093-10-9.996093-5.519531 0-9.996094 4.472656-9.996094 9.996093zm94.757813 0v65.347657c0 5.519531 4.480469 10 10 10 5.523437 0 10-4.480469 10-10v-65.347657c0-5.523437-4.476563-9.996093-10-9.996093-5.519531 0-10 4.472656-10 9.996093zm-47.378907 0v65.347657c0 5.519531 4.476563 10 10 10 5.523438 0 10-4.480469 10-10v-65.347657c0-5.523437-4.476562-9.996093-10-9.996093-5.523437 0-10 4.472656-10 9.996093zm182.167969 129.453125c-6.019531 7.960938-12.582031 15.496094-19.628906 22.542969s-14.582031 13.605469-22.542969 19.628906l94.765625 94.765625c10.058594 10.058594 21.804688 11.09375 31.410157 6.996094 3.863281-1.648438 7.460937-4.136719 10.542968-7.21875 3.078125-3.078125 5.566406-6.675781 7.214844-10.542969 4.097656-9.605469 3.0625-21.347656-6.996094-31.40625zm-33.769531-268.398437c-35.417969-35.417969-84.351562-57.328125-138.398438-57.328125-54.050781 0-102.984374 21.910156-138.402343 57.328125s-57.324219 84.351562-57.324219 138.398437c0 54.050782 21.90625 102.984375 57.324219 138.402344s84.351562 57.324219 138.402343 57.324219c54.050782 0 102.980469-21.90625 138.398438-57.324219 35.421875-35.417969 57.328125-84.351562 57.328125-138.402344 0-54.046875-21.90625-102.980468-57.328125-138.398437zm0 0" fill-rule="evenodd" fill="#00c853" data-original="#000000" style="" class=""/></g></svg>
