<?xml version="1.0"?>
<svg xmlns="http://www.w3.org/2000/svg" xmlns:xlink="http://www.w3.org/1999/xlink" xmlns:svgjs="http://svgjs.com/svgjs" version="1.1" width="512" height="512" x="0" y="0" viewBox="0 0 512 512" style="enable-background:new 0 0 512 512" xml:space="preserve" class=""><g><path xmlns="http://www.w3.org/2000/svg" d="m45.675781 0h420.648438c12.570312 0 23.992187 5.136719 32.265625 13.410156 8.273437 8.273438 13.410156 19.695313 13.410156 32.269532v290.019531c0 12.570312-5.136719 23.992187-13.410156 32.269531-8.273438 8.273438-19.695313 13.410156-32.265625 13.410156h-420.648438c-12.570312 0-23.992187-5.136718-32.265625-13.410156-8.273437-8.277344-13.410156-19.699219-13.410156-32.269531v-290.023438c0-12.570312 5.136719-23.992187 13.410156-32.265625 8.273438-8.273437 19.695313-13.410156 32.265625-13.410156zm400.132813 282.105469c-5.523438 0-10 4.480469-10 10 0 5.523437 4.476562 10 10 10 5.523437 0 10-4.476563 10-10 0-5.519531-4.476563-10-10-10zm-327.511719 19.527343h-5.5v-105.808593c0-5.539063-4.488281-10.027344-10.027344-10.027344h-28.335937v-43.882813h38.183594c1.945312 8.925782 6.433593 16.898438 12.660156 23.125 8.484375 8.484376 20.207031 13.734376 33.152344 13.734376 12.949218 0 24.667968-5.246094 33.15625-13.734376 6.226562-6.226562 10.710937-14.199218 12.65625-23.125h38.183593v43.882813h-28.332031c-5.539062 0-10.027344 4.488281-10.027344 10.027344v105.8125h-5.648437c-5.53125 0-10.015625 4.488281-10.015625 10.027343 0 5.539063 4.484375 10.027344 10.015625 10.027344h15.675781c5.539062 0 10.03125-4.488281 10.03125-10.027344v-105.8125h28.332031c5.539063 0 10.027344-4.488281 10.027344-10.027343v-63.9375c0-5.539063-4.488281-10.03125-10.027344-10.03125h-57.167969c-5.539062 0-10.027343 4.492187-10.027343 10.03125 0 7.410156-3.003907 14.117187-7.859375 18.972656-4.851563 4.851563-11.5625 7.855469-18.96875 7.855469-7.410156 0-14.121094-3.003906-18.972656-7.855469-4.855469-4.855469-7.859376-11.5625-7.859376-18.972656 0-5.539063-4.488281-10.03125-10.027343-10.03125h-57.171875c-5.539063 0-10.027344 4.492187-10.027344 10.03125v63.9375c0 5.539062 4.488281 10.027343 10.027344 10.027343h28.335937v105.8125c0 5.539063 4.488281 10.027344 10.027344 10.027344h15.53125c5.53125 0 10.015625-4.488281 10.015625-10.027344 0-5.542968-4.484375-10.03125-10.015625-10.03125zm40.058594 0c-5.53125 0-10.015625 4.488282-10.015625 10.03125 0 5.539063 4.484375 10.027344 10.015625 10.027344s10.015625-4.488281 10.015625-10.027344c0-5.542968-4.484375-10.03125-10.015625-10.03125zm155.035156-140.160156h132.386719c5.539062 0 10.03125-4.492187 10.03125-10.03125 0-5.539062-4.492188-10.027344-10.03125-10.027344h-132.386719c-5.539063 0-10.03125 4.488282-10.03125 10.027344 0 5.539063 4.492187 10.03125 10.03125 10.03125zm0 140.664063 92.417969.027343c5.539062 0 10.027344-4.488281 10.027344-10.027343 0-5.539063-4.488282-10.03125-10.027344-10.03125l-92.417969-.027344c-5.539063 0-10.03125 4.488281-10.03125 10.027344 0 5.539062 4.492187 10.03125 10.03125 10.03125zm0-46.890625h132.386719c5.539062 0 10.03125-4.488282 10.03125-10.027344s-4.492188-10.03125-10.03125-10.03125h-132.386719c-5.539063 0-10.03125 4.492188-10.03125 10.03125s4.492187 10.027344 10.03125 10.027344zm0-46.886719h132.386719c5.539062 0 10.03125-4.488281 10.03125-10.027344 0-5.539062-4.492188-10.03125-10.03125-10.03125h-132.386719c-5.539063 0-10.03125 4.492188-10.03125 10.03125 0 5.539063 4.492187 10.027344 10.03125 10.027344zm-262.183594-150.917969h22.933594c5.539063 0 10.03125-4.492187 10.03125-10.03125 0-5.539062-4.492187-10.027344-10.03125-10.027344h-22.933594c-5.539062 0-10.03125 4.488282-10.03125 10.027344 0 5.539063 4.492188 10.03125 10.03125 10.03125zm118.082031 0h22.9375c5.539063 0 10.027344-4.492187 10.027344-10.03125 0-5.539062-4.488281-10.027344-10.027344-10.027344h-22.9375c-5.535156 0-10.027343 4.488282-10.027343 10.027344 0 5.539063 4.492187 10.03125 10.027343 10.03125zm-59.042968 0h22.9375c5.539062 0 10.03125-4.492187 10.03125-10.03125 0-5.539062-4.492188-10.027344-10.03125-10.027344h-22.9375c-5.535156 0-10.027344 4.488282-10.027344 10.027344 0 5.539063 4.492188 10.03125 10.027344 10.03125zm-90.1875 17.324219h471.882812v-29.089844c0-7.03125-2.882812-13.4375-7.53125-18.085937-4.648437-4.644532-11.050781-7.53125-18.085937-7.53125h-420.648438c-7.03125 0-13.4375 2.886718-18.082031 7.53125-4.648438 4.648437-7.535156 11.054687-7.535156 18.085937zm471.882812 20.058594h-471.882812v240.875c0 7.035156 2.886718 13.4375 7.535156 18.085937 4.644531 4.648438 11.050781 7.53125 18.082031 7.53125h420.648438c7.03125 0 13.4375-2.882812 18.082031-7.53125 4.648438-4.648437 7.535156-11.050781 7.535156-18.085937zm0 0" fill-rule="evenodd" fill="#00c853" data-original="#000000" style=""/></g></svg>
